<svg width="26" height="25" viewBox="0 0 26 25" fill="none" xmlns="http://www.w3.org/2000/svg">
<g clip-path="url(#clip0_1459_156297)">
<path d="M12.9981 2.05563C14.8842 2.05563 16.7802 2.77923 18.2179 4.22546C19.2873 5.30115 19.9356 6.63522 20.2104 8.02656C23.0007 8.5708 25.1173 11.0222 25.1173 13.9809C25.1173 17.3377 22.3952 20.0763 19.0577 20.0763H16.1596C15.9479 20.0792 15.7442 19.9968 15.5937 19.8473C15.4431 19.6977 15.358 19.4938 15.358 19.2813C15.358 19.0688 15.4427 18.8643 15.5937 18.7153C15.7442 18.5657 15.9484 18.4834 16.1596 18.4862H19.0577C21.5408 18.4862 23.5366 16.4782 23.5366 13.9809C23.5366 11.6223 21.7535 9.70091 19.4694 9.4922C19.2901 9.47469 19.1222 9.39614 18.9937 9.26978C18.8648 9.14342 18.783 8.97637 18.7613 8.79653C18.6159 7.53628 18.0613 6.312 17.0982 5.34279C15.9639 4.2018 14.4838 3.64479 12.9981 3.64479C11.5124 3.64479 10.0417 4.20038 8.906 5.34279C7.59387 6.66267 7.03872 8.4558 7.2429 10.1708C7.27113 10.397 7.2015 10.6242 7.05236 10.7955C6.90275 10.9664 6.68728 11.0648 6.46099 11.0653H6.14813C4.09125 11.0653 2.45967 12.7065 2.45967 14.7755C2.45967 16.8445 4.09125 18.4858 6.14813 18.4858H9.83658C10.0483 18.4829 10.252 18.5653 10.4025 18.7148C10.5531 18.8643 10.6383 19.0678 10.6383 19.2808C10.6383 19.4938 10.5536 19.6973 10.4025 19.8468C10.252 19.9963 10.0478 20.0787 9.83658 20.0754H6.14813C3.24253 20.0759 0.878906 17.6983 0.878906 14.7755C0.878906 12.017 2.9913 9.77189 5.6706 9.52486C5.65837 7.60632 6.33584 5.684 7.78676 4.22452C9.22309 2.77923 11.1125 2.05469 12.9981 2.05469V2.05563ZM12.9981 11.0662C13.2616 11.0662 13.4008 11.1514 13.5335 11.2735L16.4316 13.9237C16.7661 14.236 16.7604 14.7433 16.481 15.05C16.2015 15.3567 15.6675 15.3789 15.3613 15.0997L13.7885 13.6587V21.4019C13.7885 21.8411 13.4347 22.1969 12.9981 22.1969C12.5615 22.1969 12.2077 21.8411 12.2077 21.4019V13.6582L10.635 15.0992C10.3282 15.3789 9.8107 15.341 9.51525 15.0495C9.2038 14.7429 9.26073 14.2057 9.56465 13.9232L12.4627 11.273C12.6194 11.1287 12.7342 11.0657 12.9981 11.0657V11.0662Z" fill="#CCCCCC"/>
</g>
<defs>
<clipPath id="clip0_1459_156297">
<rect width="24.2384" height="24.2384" fill="white" transform="translate(0.878906)"/>
</clipPath>
</defs>
</svg>
