<?xml version="1.0" encoding="utf-8"?>
<!-- Svg Vector Icons : http://www.onlinewebfonts.com/icon -->
<!DOCTYPE svg PUBLIC "-//W3C//DTD SVG 1.1//EN" "http://www.w3.org/Graphics/SVG/1.1/DTD/svg11.dtd">
<svg version="1.1" xmlns="http://www.w3.org/2000/svg" xmlns:xlink="http://www.w3.org/1999/xlink" x="0px" y="0px" viewBox="0 0 256 256" enable-background="new 0 0 256 256" xml:space="preserve">
<metadata> Svg Vector Icons : http://www.onlinewebfonts.com/icon </metadata>
<g><g><path fill="#000000" d="M82.8,54c-15.5,0-28.1,12.6-28.1,28.1c0,15.5,12.6,28.1,28.1,28.1c15.5,0,28.1-12.6,28.1-28.1C111,66.6,98.4,54,82.8,54z"/><path fill="#000000" d="M201.8,146.4c11,0,21.1,3.4,29.5,9.3v-124c0-10-8.1-18.1-18.1-18.1H28.1c-10,0-18.1,8.1-18.1,18.1v185.1c0,10,8.1,18.1,18.1,18.1h137.6c-9.6-9.4-15.5-22.4-15.5-36.9C150.1,169.5,173.3,146.4,201.8,146.4z M88.6,137.9c-3.9-2.9-9.3-2.3-12.4,1.4l-47.6,62.4V32.3h184.1v46.1l-3.8-3.4c-3.9-2.9-9.3-2.3-12.4,1.4l-71.5,93.8L88.6,137.9z"/><path fill="#000000" d="M201.8,153.8c-24.4,0-44.3,19.8-44.3,44.3c0,24.4,19.8,44.2,44.3,44.2c24.4,0,44.2-19.8,44.2-44.3C246,173.6,226.2,153.8,201.8,153.8z M226.3,196.8c-0.8,0.8-2,1.2-3,1.2c-1.1,0-2.2-0.4-3-1.2L206.1,183v40.4c0,2.3-1.9,4.2-4.3,4.2c-2.4,0-4.3-1.9-4.3-4.2V183l-14.2,13.9c-1.7,1.6-4.4,1.6-6.1,0c-1.7-1.6-1.7-4.3,0-5.9l21.5-21.1c1.7-1.6,4.4-1.6,6.1,0l21.5,21.1C228,192.5,228,195.2,226.3,196.8z"/></g></g>
</svg>